<svg xmlns="http://www.w3.org/2000/svg" version="1.0" width="102.339" height="174.085" viewBox="0 0 76.754 130.564"><g stroke="#000"><path d="M22.28 109.202h9.657s-7.004 13.55-6.772 20.956H4.055v-2.92s13.665-1.95 14.892-2.987c2.578-3.208 3.332-15.05 3.332-15.05zM58.155 109.233h-9.658s7.004 13.55 6.773 20.956h21.11v-2.92s-13.666-1.95-14.893-2.987c-2.578-3.208-3.332-15.049-3.332-15.049zM30.53 60.39h21.765v-5.948c0-3.905-.238-1.261 1.283-5.435 1.521-4.174 2.065-3.887 6.423-12.365.496-.963-4.699-5.626-4.63-4.6.109 1.608-5.632 24.845-5.632 24.845H36.988s-5.042-9.465-9.06-24.528c-.21-.782-2.564.244-2.564.244-1.134 8.05-.488 11.076-2.388 15.408-.637 1.259-2.755-5.622-4.208-12.53-.262-1.245.628-1.74 1.138-2.747.51-1.007-8.449 0-8.449 0l-.196 1.104s1.5.43 2.184.641c0 0 1.948 26.129 2.69 25.226 0 0 9.325.21 9.995 0 .8-.25 2.676-7.85 3.354-9.507.798-1.95.99.805.99.805zM52.886 107.84h-33.46l8.222-34.368.643-.172.054 20.925z" stroke-width=".75"/><path d="M29.845 61.408l.655 32.447 25.597 13.767 5.333.24s1.04-.883-.022-.914c-6.653-.2-28.04-13.751-27.58-14.797 0 0-2.381-10.837-2.649-23.35l.684-1.095s1.372 9.303 3.751 13.216c3.073 5.054 7.424 9.986 12.926 12.158.499.196 1.13.239 1.608-.005 1.223-.626 1.955-2.043 2.42-3.336.201-.561.513-1.344.112-1.785-.251-.276-.777-.184-1.119-.034-.711.312-.828 1.421-1.526 1.761-.653.318-1.588.534-2.175.108-3.926-2.85-7.435-6.294-9.905-10.187-2.493-3.928-4.86-13.084-4.86-13.084l.639-.8 1.93 3.24 2.911 3.004s4.527 2.168 5.78 3.11c.72.541 2.66.495 2.66.495.433-.018-.075-.997-.447-1.216-4.203-2.481-12.262-10.907-12.262-10.907l.218-.969 9.197 4.019s1.126 1.43 1.94 1.496c.706.057 1.182-.836 1.868-1.012.869-.222 2.69-.013 2.69-.013s.742-1.588.195-1.632c-3.666-.295-13.297-2.132-14.813-3.925h-5.756M33.41 36.19c5.035-2.06 5.016-2.037 5.016-2.037l-.755 6.642 3.123-5.633 1.979 5.627.925-5.6 1.376-.268 1.562 4.431.723-.44.066-2.263-.954-.67.183-1.432 4.74 1.64-3.768 17.664-8.72.027z" stroke-width=".75"/><path d="M38.249 31.388l.034-2.46 1.007.001.137.65h7.147v-.673l.988.045-.02 2.992h5.588l-1.14 3.172-5.042-2.713h-8.043l-6.14 2.851-1.263-3.206h5.986zM43.055 28.352h-2.298l-3.498-1.89v-4.631h4.169l-.106 2.362c.054.114-.782.666-.816.734-.127.247.205.392.336.522.23.23.528.444.787.675.138.123.281.36.448.447.028.015.084-.014.113 0 .287.142.577.192.915.192" stroke-width=".75"/><path d="M43.055 28.352h2.298l3.498-1.89v-4.631h-4.17l.053 2.24c-.054.114.835.788.87.856.126.247-.206.392-.336.522-.231.23-.53.444-.788.675-.137.123-.281.36-.447.447-.029.015-.085-.014-.114 0-.287.142-.576.192-.915.192M43.112 25.485c-.74.173-.452-.062-.828-.33-.376-.268.263-1.152.263-1.152l.043-3.508c-.63-.33-1.67-.763-1.67-.763h-3.456l-.407.945c-1.302.162-1.507 3.47-1.507 3.47l-2.473-1.841V21.2l1.276-.722.068-1.376.994-.654.04-.774-2.758-.132.01-.638h10.536" stroke-width=".75"/><path d="M50.674 24.148s-.205-3.31-1.507-3.471l-.407-.945h-3.456s-1.04.433-1.67.763l-.187 3.794s.745.76.37 1.027c-.377.268.036.342-.705.169" fill="none" stroke-width=".75"/><path d="M43.112 25.485c.74.173.452-.062.828-.33.376-.268-.263-1.152-.263-1.152l-.043-3.508c.63-.33 1.67-.763 1.67-.763h3.456l.407.945c1.302.162 1.507 3.47 1.507 3.47l2.473-1.841V21.2l-1.276-.722-.069-1.376-.993-.654-.04-.774 2.758-.132-.01-.638H42.981M54.368 54.962l1.15.151s-.228 7.51.605 7.778c.832.267.458-7.924.458-7.924l1.128-.055s.333 8.227 1.45 8.053c1.116-.174.184-5.04.535-5.789.352-.75-1.14-1.518-1.14-1.518l.191-.804 2.035.041s.927 6.228 1.307 7.14c.38.913.764-4.253.764-4.253s.243-3.056.713-3.59c.537-.61.735.99 3.317-1.037 2.58-2.027-.715-6.514.998-6.236 1.057.17 5.3 4.509 5.367 5.719.07 1.255-13.559 13.984-13.559 13.984s-3.996 1.174-4.572-1.138c-.577-2.312-.747-10.522-.747-10.522zM70.18 22.962s-4.4-.123-4.1-1.931c.302-1.808 3.082-3.001 5.712-1.013.559.422 3.612.816 3.915 3.207.306 2.416-5.527-.263-5.527-.263zM64.151 22.922s-.64 2.693.67 3.073c1.307.38 2.496-.544 2.496-.544s.046-2.58-.528-1.85c0 0-.133-1.381-2.638-.679zM69.668 24.833s-.997-.845-1.148.563c-.15 1.408 1.03.767 1.316 1.223.285.457-.946 1.057-.18 1.066 1.945.024 3.28.37 3.775.2.65-.222-.012-.937.938-1.108.95-.17.871-1.102.38-1.023-.491.078-5.081-.921-5.081-.921z" stroke-width=".75"/><path d="M68.042 26.933s-.091 5.003 3.87 2.137l1.526-.315-3.22 6.869s-3.267 2.164-3.555.808c0 0 2.19-2.61.013-2.494-1.555.084-1.59-1.044-1.258-1.824.331-.78-.549-2.386 1.174-1.485 0 0-.843-3.852 1.45-3.696zM65.762 27.23c-.472-.644-2.39-.178-2.39-.178s-.904.063-1.413 1.82c-.509 1.756-1.834 5.346-.475 5.873l2.431-.072s-1.598-1.604-.078-2.422c1.52-.819-1.069-1.815 1.42-2.864 0 0 .942-1.562.505-2.157z" stroke-width=".75"/><path d="M61.775 35.779c.254-.142.738-.135 1.062-.179a7.87 7.87 0 00.633-.107c.372-.093 1.117.367 1.385.231.138-.07.583-.256.639-.526.042-.207-.41-.387-.291-.56.114-.168.523.074.604.06.354-.062.471.091.554.282.106.241-.08.154-.216.76-.141.283-.27.33-.548.4-.453.113-.541.249-1.001.344l-.404.083c-.417-.05-.004.76.149.837.776.13 1.537-.402 1.697-.069.258.534.477 1.149.145 1.546-.265.317-.856.238-1.235.106-.42.329-1.14-.152-1.714-.195-.166-.082-.72-.072-.808-.203-.096-.142-.104-.427-.271-.76-.106-.213-.127-.48-.276-.668-.117-.15-.403-.154-.46-.335-.112-.351.02-.747.356-1.047z" stroke-width=".75"/><path d="M60.851 37.432c1.109.277-.454 4.916 4.995 3.649 2.437-.566-.81 2.31-.847 3.4-.029.89-7.974-.792-6.225-1.192 1.749-.4.872-6.159 2.077-5.857z" stroke-width=".75"/><path d="M61.936 45.902c3.334 1.76 3.989 2.261 6.353-6.928.192-.748 1.044-.085.767.881-.728 2.53-2.183 7.21-4.198 10.245-.557.839-.117-.422-2.799-.5-.523-.016-1.033-4.178-.123-3.698zM57.507 45.17c.128-.481 2.83-.28 2.549 1.156-.13.657-1.97-1.671-1.285.536.135.436-1.056 1.399-1.464.72-.371-.616-.023-1.577.2-2.413zM54.731 53.442c-1.001-.612-.524-5.037 2.147-4.466 2.05.44-.58 1.647-.64 2.065-.133.932.124 3.398-1.507 2.4zM64.18 52.387c-.118-.597-3.956-3.368-6.5-1.433-.687.524-.393 2.191-.174 2.588.638 1.16 4.154-1.017 4.368 1.251.051.55.942-.885.919-1.38-.024-.493 1.497-.461 1.386-1.026zM12.21 30.667c-2.005.456-1.21 1.327-.294 1.08.917-.248 6.589-.284 6.589-.284s4.355-.473.932-.698c-3.424-.224-7.227-.098-7.227-.098z" stroke-width=".75"/><path stroke-width="2.129" stroke-linejoin="round" d="M11.632 27.983h8.082v1.065h-8.082z"/><path stroke-width="1.667" stroke-linejoin="round" d="M11.705 25.289h7.86v.449h-7.86z"/><path stroke-width="1.539" stroke-linejoin="round" d="M14.712 22.034h1.502v1.232h-1.502z"/><path stroke-width="1.405" stroke-linejoin="round" d="M14.875 19.13h1.188v1.299h-1.188z"/><path stroke-width="1.432" stroke-linejoin="round" d="M14.751 16.193h1.201v1.334h-1.2z"/><path d="M17.462 15.73l3.23-2.126s4.679 5.217 5.512 11.453c.238 1.782-8.742-9.327-8.742-9.327zM14.958 14.117s-1.694-3.294-3-3.503c-1.745-.28.147-.372-6.432 4.58C.963 18.626.043 18.73.043 18.73c6.336.606 6.642.4 7.464-.084 1.21-.713 4.297-5.212 7.45-4.53zM16.606 14.287s1.776-11.5 7.419-11.01c1.272.11 2.435-3.758 2.045-.684-1.105 8.709-9.396 12.684-9.464 11.694M13.575 10.095s-2.179-1.815-5.889-.397C4.992 10.728 2.875.376 2.875.376s4.58-.445 10.7 9.719zM15.489 12.801l.44-12.137s-2.941 10.31-.44 12.137zM49.712 14.97s-1.174-1.35.053-3.485c.628-1.093.666 3.764-.053 3.486zM60.127 17.423s-1.35 1.174-3.485-.052c-1.094-.629 3.764-.666 3.485.052zM29.938 17.18s-1.35 1.174-3.486-.052c-1.093-.629 3.764-.666 3.486.052zM32.064 15.943s-1.574.85-3.389-.815c-.93-.853 3.818.175 3.39.815z" stroke-width=".75"/><path d="M33.991 15.133s-1.883.11-2.87-2.372c-.505-1.27 3.566 1.94 2.87 2.372z" stroke-width=".804"/><path d="M31.365 18.049s-.634 1.673-3.095 1.602c-1.261-.036 3-2.367 3.095-1.602zM33.573 18.739s-.458 1.73-2.914 1.912c-1.258.094 2.741-2.663 2.914-1.912z" stroke-width=".75"/><path d="M37.44 14.08s-1.297.312-2.102-1.09c-.412-.719 2.562.732 2.102 1.09zM41.528 14.96s-.991.893-2.367.044c-.705-.436 2.601-.578 2.367-.044z" stroke-width=".529"/><path d="M37.652 15.757s-1.304.639-2.516-.645c-.621-.657 2.916.159 2.516.645zM37.755 12.794s-.988-1.064-.11-2.595c.45-.785.69 2.838.11 2.595z" stroke-width=".575"/><path d="M39.068 13.865s-.01-1.45 1.631-2.187c.84-.377-1.373 2.726-1.63 2.187z" stroke-width=".568"/><path d="M54.438 15.989s.155-1.783 2.543-2.384c1.223-.309-2.243 3.094-2.543 2.384z" stroke-width=".75"/><path d="M57.16 20.37s-1.633.12-2.305-2.127c-.344-1.152 2.938 1.726 2.306 2.128z" stroke-width=".712"/><path d="M54.287 20s-1.331.082-1.879-1.44c-.28-.78 2.395 1.169 1.88 1.44z" stroke-width=".529"/><path d="M51.616 15.293s-.03-1.51 1.815-2.057c.946-.28-1.516 2.653-1.815 2.057z" stroke-width=".615"/><path d="M43.736 14.665s-.332-2.096 2.908-3.388c1.66-.661-2.258 4.133-2.908 3.388z" stroke-width=".988"/><path d="M45.657 15.17s.451-1.454 2.246-1.407c.919.024-2.172 2.07-2.246 1.407z" stroke-width=".596"/></g></svg>