<svg xmlns="http://www.w3.org/2000/svg" viewBox="0 0 27.077 46.06" height="174.085" width="102.339"><g stroke="#000"><path d="M19.217 38.524H15.81s2.471 4.78 2.39 7.393h7.447v-1.03s-4.821-.688-5.254-1.054c-.91-1.132-1.176-5.31-1.176-5.31zM6.561 38.535H9.97s-2.471 4.78-2.39 7.393H.132v-1.03s4.82-.688 5.254-1.054c.91-1.132 1.175-5.309 1.175-5.309zM16.307 21.304H8.628v-2.098c0-1.378.085-.445-.452-1.917-.537-1.473-.729-1.372-2.266-4.362-.175-.34 1.658-1.985 1.633-1.623-.038.567 1.987 8.764 1.987 8.764h4.499s1.778-3.339 3.196-8.652c.074-.276.904.086.904.086.4 2.84.173 3.907.843 5.435.224.444.971-1.983 1.484-4.42.093-.44-.221-.614-.401-.97-.18-.354 2.98 0 2.98 0l.07.39s-.53.152-.771.227c0 0-.687 9.217-.949 8.899 0 0-3.29.074-3.526 0-.282-.089-.944-2.77-1.183-3.354-.282-.688-.35.284-.35.284zM8.42 38.044h11.804l-2.9-12.125-.227-.06-.02 7.381z" stroke-width=".26458499999999996"/><path d="M16.549 21.663l-.231 11.447-9.03 4.857-1.882.084s-.367-.311.008-.322c2.347-.07 9.892-4.851 9.73-5.22 0 0 .84-3.823.934-8.238l-.241-.386s-.484 3.282-1.324 4.662c-1.084 1.783-2.619 3.523-4.56 4.29-.176.069-.399.084-.567-.002-.431-.221-.69-.721-.854-1.177-.07-.198-.18-.474-.04-.63.09-.097.275-.065.395-.012.252.11.293.502.54.622.23.112.559.188.766.038 1.385-1.006 2.623-2.22 3.495-3.594.879-1.386 1.714-4.616 1.714-4.616l-.225-.282-.682 1.143-1.026 1.06s-1.597.764-2.039 1.096c-.255.192-.939.175-.939.175-.152-.006.027-.351.158-.429 1.483-.875 4.326-3.848 4.326-3.848l-.077-.341-3.245 1.417s-.397.505-.684.528c-.249.02-.417-.295-.66-.357-.305-.078-.948-.004-.948-.004s-.262-.56-.069-.576c1.293-.104 4.691-.752 5.226-1.385h2.03M15.29 12.767c-1.776-.727-1.769-.719-1.769-.719l.267 2.344-1.102-1.988-.698 1.985-.326-1.975-.486-.095-.551 1.564-.255-.156-.023-.798.336-.237-.065-.505-1.672.579 1.33 6.231 3.076.01z" stroke-width=".26458499999999996"/><path d="M13.584 11.073l-.012-.868h-.356l-.048.23h-2.521v-.238l-.349.016.008 1.056H8.334l.402 1.119 1.779-.957h2.837l2.166 1.006.446-1.132h-2.112zM11.888 10.002h.811l1.234-.667V7.701h-1.47l.037.834c-.02.04.275.235.288.259.044.087-.073.138-.119.184-.081.081-.186.157-.278.238-.048.043-.099.127-.158.158-.01.005-.03-.005-.04 0a.7.7 0 01-.322.067" stroke-width=".26458499999999996"/><path d="M11.888 10.002h-.81l-1.234-.667V7.701h1.47l-.018.79c.02.04-.295.279-.307.303-.044.087.073.138.119.184.081.081.186.157.277.238.05.043.1.127.158.158.01.005.03-.005.04 0a.7.7 0 00.323.067M11.868 8.99c.261.062.16-.021.292-.116.133-.094-.093-.406-.093-.406l-.015-1.238c.222-.116.59-.269.59-.269h1.219l.143.333c.46.057.532 1.225.532 1.225l.872-.65v-.39l-.45-.255-.024-.485-.35-.23-.015-.274.973-.046-.003-.225h-3.717" stroke-width=".26458499999999996"/><path d="M9.2 8.519s.073-1.168.532-1.225l.144-.333h1.219s.367.153.589.27l.066 1.338s-.263.268-.13.362c.132.095-.013.12.248.06" fill="none" stroke-width=".26458499999999996"/><path d="M11.868 8.99c-.261.062-.16-.021-.292-.116-.132-.094.093-.406.093-.406l.015-1.238c-.222-.116-.59-.269-.59-.269H9.877l-.144.333c-.46.057-.531 1.225-.531 1.225l-.873-.65v-.39l.45-.255.024-.485.35-.23.015-.274-.973-.046.004-.225h3.717M7.897 19.39l-.405.053s.08 2.65-.214 2.743c-.293.095-.161-2.795-.161-2.795l-.398-.02s-.118 2.903-.512 2.842c-.394-.062-.065-1.778-.189-2.043-.124-.264.402-.535.402-.535l-.067-.284-.718.015s-.327 2.197-.46 2.519c-.135.322-.27-1.5-.27-1.5s-.086-1.079-.252-1.267c-.19-.216-.26.349-1.17-.366-.91-.715.252-2.298-.352-2.2-.373.06-1.87 1.59-1.894 2.017-.024.443 4.784 4.934 4.784 4.934s1.41.414 1.613-.402c.203-.815.263-3.712.263-3.712zM2.32 8.1s1.551-.043 1.445-.68c-.106-.639-1.087-1.06-2.014-.358C1.553 7.21.476 7.35.37 8.193.26 9.046 2.32 8.1 2.32 8.1zM4.446 8.086s.226.95-.236 1.084c-.461.134-.88-.191-.88-.191s-.017-.91.186-.653c0 0 .046-.487.93-.24zM2.5 8.76s.352-.297.405.2c.053.496-.364.27-.464.43-.101.162.333.373.063.377-.686.008-1.157.13-1.332.07-.23-.078.004-.33-.33-.39-.336-.06-.308-.39-.135-.362.174.028 1.793-.324 1.793-.324z" stroke-width=".26458499999999996"/><path d="M3.074 9.501s.032 1.765-1.366.754l-.538-.11 1.136 2.422s1.152.764 1.254.285c0 0-.772-.92-.005-.88.549.03.561-.368.444-.643-.117-.275.194-.841-.414-.524 0 0 .297-1.359-.511-1.304zM3.878 9.606c.166-.227.843-.063.843-.063s.319.022.498.642c.18.62.647 1.886.168 2.072l-.858-.025s.564-.566.028-.855c-.536-.288.377-.64-.501-1.01 0 0-.332-.55-.178-.76z" stroke-width=".26458499999999996"/><path d="M5.284 12.622c-.09-.05-.26-.048-.374-.063-.075-.01-.19-.03-.224-.038-.13-.033-.394.13-.488.082-.049-.025-.206-.09-.226-.186-.014-.073.145-.136.103-.198-.04-.059-.185.027-.213.022-.125-.022-.166.032-.196.099-.037.085.028.055.077.268.05.1.095.117.193.141.16.04.191.088.353.122l.143.03c.147-.018.001.267-.053.294-.274.046-.542-.141-.599-.024-.09.188-.168.405-.05.545.093.112.301.084.435.038.148.116.402-.054.605-.07.058-.028.253-.024.285-.07.033-.05.036-.151.095-.27.038-.074.045-.168.097-.234.042-.053.143-.055.163-.118.04-.125-.007-.264-.126-.37z" stroke-width=".26458499999999996"/><path d="M5.61 13.205c-.39.098.16 1.734-1.762 1.287-.86-.2.286.815.299 1.2.01.314 2.813-.28 2.196-.42-.617-.141-.308-2.173-.733-2.067z" stroke-width=".26458499999999996"/><path d="M5.228 16.193c-1.177.621-1.408.798-2.242-2.444-.068-.264-.368-.03-.27.311.257.893.77 2.543 1.48 3.614.197.296.042-.149.988-.176.184-.006.365-1.474.044-1.305zM6.79 15.935c-.045-.17-.999-.099-.9.408.046.232.695-.59.454.189-.047.154.372.493.517.254.13-.217.008-.557-.07-.851zM7.77 18.853c.352-.216.184-1.777-.758-1.575-.724.155.204.58.225.728.048.329-.043 1.199.532.847zM4.436 18.481c.041-.21 1.395-1.188 2.293-.505.242.184.139.772.061.913-.225.409-1.465-.36-1.54.44-.019.195-.333-.312-.325-.486.009-.174-.528-.163-.489-.362zM22.77 10.819c.707.16.427.468.103.38-.323-.087-2.324-.1-2.324-.1s-1.537-.166-.329-.246c1.208-.079 2.55-.034 2.55-.034z" stroke-width=".26458499999999996"/><path stroke-width=".75106862" stroke-linejoin="round" d="M22.974 9.872h-2.852v.375h2.852z"/><path stroke-width=".58808426" stroke-linejoin="round" d="M22.948 8.921h-2.773v.159h2.773z"/><path stroke-width=".54292842" stroke-linejoin="round" d="M21.887 7.773h-.53v.435h.53z"/><path stroke-width=".4956559" stroke-linejoin="round" d="M21.83 6.748h-.42v.459h.42z"/><path stroke-width=".5051809599999999" stroke-linejoin="round" d="M21.873 5.712h-.423v.471h.423z"/><path d="M20.917 5.55l-1.14-.75s-1.65 1.84-1.944 4.04c-.084.628 3.084-3.29 3.084-3.29zM21.8 4.98s.598-1.162 1.058-1.236c.616-.098-.051-.13 2.27 1.616 1.61 1.211 1.934 1.248 1.934 1.248-2.235.214-2.343.141-2.633-.03-.427-.251-1.516-1.838-2.629-1.598zM21.219 5.04s-.627-4.057-2.617-3.884c-.45.04-.86-1.326-.722-.241.39 3.072 3.315 4.474 3.339 4.125M22.288 3.561s.769-.64 2.078-.14c.95.363 1.697-3.288 1.697-3.288s-1.616-.157-3.775 3.428zM21.613 4.516L21.458.234s1.037 3.637.155 4.282zM9.54 5.281s.414-.476-.019-1.23c-.221-.385-.235 1.328.019 1.23zM5.866 6.147s.476.414 1.229-.019c.386-.222-1.328-.235-1.23.019zM16.516 6.06s.476.415 1.23-.018c.385-.221-1.328-.235-1.23.019zM15.766 5.624s.555.3 1.195-.287c.328-.301-1.347.061-1.195.287z" stroke-width=".26458499999999996"/><path d="M15.086 5.339s.664.038 1.012-.837c.179-.449-1.258.684-1.012.837z" stroke-width=".28363512"/><path d="M16.012 6.367s.224.59 1.092.565c.445-.012-1.058-.835-1.092-.565zM15.233 6.61s.162.61 1.028.675c.444.033-.967-.94-1.028-.674z" stroke-width=".26458499999999996"/><path d="M13.869 4.967s.458.11.742-.384c.145-.254-.904.258-.742.384zM12.427 5.278s.35.315.835.015c.249-.154-.918-.204-.835-.015z" stroke-width=".18662062"/><path d="M13.794 5.559s.46.225.888-.228c.22-.232-1.029.056-.888.228zM13.758 4.513s.349-.375.039-.915c-.16-.277-.244 1.001-.039.915z" stroke-width=".2028485"/><path d="M13.295 4.891s.003-.511-.576-.771c-.296-.133.485.961.576.771z" stroke-width=".20037903999999998"/><path d="M7.873 5.64s-.055-.628-.897-.84c-.432-.11.79 1.091.897.84z" stroke-width=".26458499999999996"/><path d="M6.912 7.186s.577.043.813-.75c.122-.407-1.036.609-.813.75z" stroke-width=".25117935999999996"/><path d="M7.926 7.056s.47.028.663-.508c.099-.276-.845.412-.663.508z" stroke-width=".18662062"/><path d="M8.868 5.395s.011-.533-.64-.726c-.334-.098.535.936.64.726z" stroke-width=".21695969999999998"/><path d="M11.648 5.173s.117-.74-1.026-1.195c-.585-.233.797 1.458 1.026 1.195z" stroke-width=".34854663999999996"/><path d="M10.97 5.352s-.159-.513-.792-.497c-.324.009.766.73.792.497z" stroke-width=".21025687999999998"/></g></svg>