<svg xmlns="http://www.w3.org/2000/svg" viewBox="0 0 27.077139 46.060055" height="46.060055mm" width="27.077139mm"><g stroke="#000"><path d="M19.21744905 38.52394275h-3.40710407s2.47087984 4.78043512 2.38929222 7.39278273h7.44696791V44.8868825s-4.82063583-.68825885-5.2536081-1.0538989c-.90933374-1.13171814-1.17554796-5.30904085-1.17554796-5.30904085zM6.56144742 38.53498117h3.40710406s-2.47087984 4.78043511-2.38929222 7.39278272H.13229163v-1.02984297s4.82063556-.68825885 5.25360818-1.0538989c.90933339-1.13171814 1.1755476-5.30904085 1.1755476-5.30904085zM16.3066772 21.3039715H8.62847538v-2.09799233c0-1.37772842.08408317-.44500834-.45251898-1.91744948-.5366025-1.4724415-.72850267-1.37106975-2.26592442-4.36187805-.17479433-.34003438 1.65779481-1.98486567 1.63334414-1.62265321-.03828203.56711425 1.98706594 8.7643848 1.98706594 8.7643848h4.49830286s1.77862897-3.33899855 3.19630348-8.65288163c.07363071-.2759904.9042936.08605379.9042936.08605379.40014665 2.8396769.17219753 3.90750205.8422541 5.43567326.22486408.44405337.97185266-1.98326406 1.48455483-4.42018128.09240555-.4392115-.22149823-.61398255-.40137397-.96913875-.17987539-.3551562 2.98055482 0 2.98055482 0l.06920865.3893058s-.52949932.15191386-.77064198.2263221c0 0-.68713384 9.21749082-.94854005 8.89903021 0 0-3.28981992.07403818-3.52636659 0-.28233863-.08837083-.94393594-2.76903773-1.18321664-3.35385332-.2815149-.68803871-.34951704.28387569-.34951704.28387569zM8.42025712 38.04379457h11.80348593L17.323412 25.91915917l-.22680682-.0606478-.01910645 7.38182192z" stroke-width=".26458499999999996"/><path d="M16.5486397 21.66341042l-.23112094 11.44642226-9.0302198 4.8569752-1.88146932.08437033s-.36685466-.31119233.00805744-.32241772c2.34693385-.07026628 9.89204178-4.851051 9.72928352-5.21997893 0 0 .84017801-3.82310032.9345623-8.23748934l-.24109892-.3861749s-.48408695 3.28187784-1.32335408 4.66222882c-1.08408715 1.7830094-2.61896466 3.5229898-4.55997547 4.28904779-.17587348.06941184-.39891793.08446205-.56722326-.00169334-.43135655-.22081066-.68960434-.7207853-.85358533-1.1767855-.07117609-.19792773-.1812858-.47426173-.03964905-.6297623.08862342-.09729857.2741108-.06483138.3946472-.01199091.25103102.11004656.29212504.50137517.53855654.6213676.23017833.11207855.55993206.18848528.7671008.03807 1.38494344-1.00554081 2.62282264-2.22036105 3.494376-3.59368258.87945699-1.38577493 1.71429923-4.61579126 1.71429923-4.61579126l-.22530435-.2822783-.68108123 1.14314143-1.0267417 1.0595571s-1.59687821.76472519-2.03870309 1.09685629c-.254502.19131562-.93903022.17486559-.93903022.17486559-.1522677-.00627945.0267723-.35155646.15801728-.42901516 1.48287066-.87517498 4.325652-3.84778983 4.325652-3.84778983l-.07670164-.34164163-3.24460193 1.41763676s-.39704185.50475655-.68416168.5279076c-.24911297.02008716-.4171957-.29504287-.6593152-.3570023-.30632575-.07839039-.9485799-.00453671-.9485799-.00453671s-.26188353-.5602686-.06919807-.57578483c1.29336232-.10414952 4.69098584-.75204883 5.22570063-1.38463123h2.03086225M15.2905735 12.76676534c-1.776114-.72655252-1.76935126-.71826683-1.76935126-.71826683l.26654971 2.34314678-1.10181387-1.9871612-.69820048 1.9849782-.32625347-1.97576964-.48556156-.09425552-.55108861 1.56316324-.25483044-.15564414-.02330803-.79812513.33632422-.2365509-.06455939-.50479783-1.67232256.57834423 1.32946067 6.2316408 3.0766663.0094227z" stroke-width=".26458499999999996"/><path d="M13.58382689 11.07294274l-.01207558-.86802028-.35533118.00059972-.04838523.22935565h-2.52131543v-.23744731l-.34841073.01598436.00721783 1.0555118H8.33416312l.40192642 1.11895322 1.77880605-.95715735h2.83732881l2.16596943 1.0057846.44584831-1.13115547h-2.11170833zM11.8884362 10.00178208h.81068402l1.23398524-.66651715V7.70143748h-1.47074323l.03739127.83337363c-.0191276.03999195.27568172.23501209.28785185.2587699.0447114.08728287-.07257592.13839755-.11845078.18427383-.08135444.0813569-.1866071.15672505-.27776452.23802304-.04860078.04334404-.09923039.1271785-.1579192.1579178-.01007181.00527402-.0298944-.00503415-.04011754 0-.10121759.0498422-.20332312.0675601-.32259834.0675601" stroke-width=".26458499999999996"/><path d="M11.8884362 10.00178208h-.81068403l-1.23398524-.66651715V7.70143748h1.47074322l-.01854905.79036367c.01912761.03999195-.29452252.27802205-.30669265.30177986-.0447114.08728287.07257592.13839755.11845078.18427383.08135444.0813569.1866071.15672505.27776452.23802304.04860078.04334404.09923039.1271785.1579192.1579178.01007181.00527402.0298944-.00503415.04011754 0 .10121759.0498422.20332311.0675601.32259834.0675601M11.86818993 8.99040702c.2612457.0611177.15949576-.0217558.29205378-.11621417.132558-.09445977-.09279784-.40645996-.09279784-.40645996l-.01501775-1.23763297c.22186723-.1163387.58920378-.26911758.58920378-.26911758h1.21906416l.14361724.33332772c.45936922.05706216.53149957 1.2244345.53149957 1.2244345l.87255701-.64980078V7.4793293l-.45005553-.2549539-.02430992-.48509554-.35041557-.23105427-.01413933-.2728295.97283338-.04662206-.00342194-.22504223H11.8218395" stroke-width=".26458499999999996"/><path d="M9.20056698 8.51874455s.07213035-1.16737233.53149957-1.22443449l.14361724-.33332772h1.21906416s.36733655.15277888.58920378.26911758l.06621992 1.33858774s-.26298313.26792907-.13042512.36238884c.13255801.09445943-.0128023.12044821.2484434.05933052" fill="none" stroke-width=".26458499999999996"/><path d="M11.86818957 8.99040667c-.2612457.06111769-.15949541-.0217558-.29205342-.11621382-.13255802-.09446013.09279748-.40645996.09279748-.40645996l.01501775-1.23763297c-.22186688-.1163387-.58920343-.26911758-.58920343-.26911758H9.87568379l-.14361724.33332772c-.45936922.05706216-.53149957 1.2244345-.53149957 1.2244345l-.87255701-.64980078V7.4793293l.45005553-.2549539.02430992-.48509554.35041557-.23105427.01413933-.2728295-.97283338-.04662206.00342194-.22504223h3.7170211M7.8973551 19.38927933l-.40583096.05352168s.080397 2.64935258-.2132577 2.74360457c-.29365433.094252-.1616523-2.79509707-.1616523-2.79509707l-.39783207-.01945923s-.11767114 2.90210058-.51151895 2.8407296c-.3938478-.061371-.06495062-1.77772198-.18901021-2.04208376-.1240596-.26436214.40217689-.53546198.40217689-.53546198l-.06730648-.2839039-.71773942.01470024s-.32715587 2.1968957-.46117791 2.5188294c-.13402169.32193441-.26955185-1.50028025-.26955185-1.50028025s-.08555355-1.07815554-.25132912-1.2666327c-.1895041-.21545515-.25948992.34921048-1.17015257-.36579704-.9106623-.71500787.2522294-2.29814714-.35220521-2.20014125-.37291574.06046647-1.8698901 1.59069543-1.89352163 2.01756606-.02450747.44271634 4.78332648 4.93350433 4.78332648 4.93350433s1.40973172.41397342 1.6131208-.40167171c.2033891-.81564514.2634622-3.71192488.2634622-3.71192488zM2.31929438 8.10045454s1.55216574-.04349503 1.44602761-.6813137c-.10613778-.63781869-1.0869404-1.05857603-2.01469761-.35741081-.19730156.14911352-1.2741744.28821027-1.3811232 1.13142816-.108107.85235025 1.9497932-.09270365 1.9497932-.09270365zM4.44606597 8.08644291s.22547403.95001995-.23601962 1.08391147c-.4614933.13389186-.88070124-.1918462-.88070124-.1918462s-.01643238-.91033669.18619047-.6528329c0 0 .0467674-.48701571.93053039-.23923237zM2.49987038 8.7605201s.35175296-.2979854.40478357.19867879c.05303061.49666453-.3633858.2705883-.4640347.43153787-.10064892.16094992.33367202.37268044.0635963.37601101-.6861831.00846314-1.15722645.13053272-1.3318338.07074077-.22952921-.07859924.00399344-.33095917-.33096729-.39108097-.33497025-.0601218-.30740596-.3886916-.13413316-.36099044.17327033.02770011 1.79258908-.32489704 1.79258908-.32489704z" stroke-width=".26458499999999996"/><path d="M3.07360275 9.50146277s.03196872 1.7647595-1.36552972.7537397l-.53811275-.11112395 1.13588586 2.4231208s1.15247558.76354832 1.25421458.28503208c0 0-.77253358-.9208791-.00465314-.87958787.54851475.02949575.56087608-.36841535.4438791-.6435164-.11699663-.27510104.19346368-.84160004-.4142821-.52385699 0 0 .29737402-1.358822-.51140183-1.30380737zM3.87767501 9.60621413c.16674465-.22715008.84300552-.06285335.84300552-.06285335s.31919968.02205566.49867713.64180365c.17947746.6197487.6470604 1.88601487.16767669 2.07199473l-.85768637-.0254247s.56363057-.565604.027559-.85434238c-.53607087-.28873873.37709015-.64037985-.50115822-1.0103566 0 0-.332202-.55085825-.17807375-.76082135z" stroke-width=".26458499999999996"/><path d="M5.28431675 12.62187563c-.08957204-.04989794-.26034259-.04763064-.37474419-.06288757-.07493529-.00929217-.18923034-.02930525-.22334819-.03782413-.13097933-.03270956-.39392012.1294317-.48843352.08156222-.04871085-.02467328-.20583419-.09042682-.22531458-.18580664-.01485194-.0727255.14416546-.13627382.10248653-.19769455-.04005227-.05902324-.18453346.02627842-.2129229.02133953-.12492637-.02172053-.16647407.03235678-.19575321.09943006-.03722864.08528473.02811639.05459624.0765182.26847694.04974731.09949497.09530468.11631788.19305658.14075586.1600715.0400177.19110042.08788894.353405.1214621l.14230139.02943577c.1470801-.01750483.00155222.26794495-.05244818.29501993-.27370933.04599552-.54217992-.14153973-.59885825-.02402064-.09075632.18817943-.16810179.40515751-.05105859.54523533.09348576.11188418.3019552.08407753.43580896.03727556.14835434.11607447.4021663-.05344512.60457043-.06883047.05872798-.02889955.25369167-.02526241.28493896-.07139022.03389489-.0500366.03676156-.15058214.09574883-.268472.03744206-.07483122.04463732-.16875336.09718498-.23544212.04145844-.0526154.14238781-.05415527.1626683-.11799782.03940386-.1240416-.00758472-.26375535-.12580655-.36962643z" stroke-width=".26458499999999996"/><path d="M5.6102573 13.20512982c-.39108097.09783763.16022108 1.73432078-1.7622837 1.28734747-.85957409-.19984684.28620577.81492264.29883028 1.19962045.01029405.3136967 2.81313813-.27963177 2.1962247-.42058377-.61691306-.14095165-.30759222-2.17275229-.73277128-2.06638415z" stroke-width=".26458499999999996"/><path d="M5.22754281 16.19321786c-1.17636817.62090863-1.40713986.79778505-2.24124727-2.44408496-.06786456-.26376559-.3684083-.02997906-.27041121.31085648.25669804.89280152.77008388 2.54325538 1.48084678 3.61428199.19627814.29576535.04138894-.14897523.98738617-.1765928.18434967-.00537986.36448999-1.47392422.04342553-1.30446071zM6.79010527 15.9347009c-.04522329-.16957534-.99863238-.0982398-.8992771.40814271.04545682.2316801.69463071-.58969309.45337975.18893437-.04767297.15386332.372231.49357843.51640245.25416262.13083223-.21726383.00807862-.5565729-.0705051-.8512397zM7.76921316 18.85306982c.35327342-.21597443.18482098-1.77700866-.75721597-1.5753309-.72367667.15492941.20414968.5809883.2253555.72838732.04730503.3288111-.04351796 1.19870253.53186047.84694358zM4.4360379 18.48105755c.04133427-.2106295 1.39540366-1.18814178 2.2925902-.50554713.24276966.1847028.13892.77294527.06180525.91304426-.22533927.40938625-1.46542757-.35880463-1.54089414.44131193-.01830564.19406552-.33246306-.3124154-.32421512-.48667528.00824795-.17425987-.52835985-.16302425-.48928618-.36213378zM22.76972681 10.81860514c.70736388.16097638.42697646.468086.10367645.38089804-.32330001-.08718797-2.32442627-.10010034-2.32442627-.10010034s-1.53650417-.16689281-.3287663-.24602334c1.20773787-.07913017 2.54951612-.0347733 2.54951612-.0347733z" stroke-width=".26458499999999996"/><path stroke-width=".7512167876" stroke-linejoin="round" d="M22.9735043 9.87176901h-2.85104184v.37576936h2.85104184z"/><path stroke-width=".5882324275999999" stroke-linejoin="round" d="M22.94783266 8.92140228h-2.7723532v.15853146h2.7723532z"/><path stroke-width=".5429178365999999" stroke-linejoin="round" d="M21.88702674 7.7730997h-.52972595V8.207716h.52972595z"/><path stroke-width=".49576173399999995" stroke-linejoin="round" d="M21.8295744 6.74838576h-.41905455v.45810702h.41905456z"/><path stroke-width=".5051421542" stroke-linejoin="round" d="M21.87310895 5.71223617h-.42357491v.47053309h.4235749z"/><path d="M20.91676616 5.54925955l-1.13941399-.7500948s-1.65045457 1.84035661-1.94439042 4.04038427c-.08397875.62855614 3.0838044-3.29028947 3.0838044-3.29028947zM21.80040004 4.98029427s.59753569-1.16229375 1.05805461-1.23606205c.6158872-.09865571-.0518661-.13094229 2.2693428 1.61568197 1.60960485 1.21116828 1.93405679 1.24808895 1.93405679 1.24808895-2.23513317.21351627-2.34287185.14103702-2.63301993-.02981325-.4270583-.25146811-1.51588431-1.83847278-2.62843427-1.59789703zM21.21880002 5.04029718s-.6264543-4.0573559-2.61706566-3.88423586c-.44894499.03904396-.8591331-1.32564237-.72155507-.24132444.3898092 3.07227312 3.31482658 4.47463143 3.33862073 4.1255603M22.28807332 3.56121217s.76880119-.64009903 2.07744973-.13999844c.95042907.36320694 1.6975166-3.28847267 1.6975166-3.28847267s-1.61560725-.1571035-3.77496633 3.42847111zM21.61303624 4.51599145l-.1549601-4.2817668s1.03725342 3.6369723.1549601 4.2817668zM9.53982842 5.28126662s.41416357-.47632725-.01857728-1.2295233c-.22167602-.38583235-.23488402 1.32767913.01857728 1.2295233zM5.8655086 6.14655288s.47632725.41416357 1.2295233-.01857728c.38583235-.22167602-1.32767913-.23488402-1.2295233.01857728zM16.51576435 6.06081942s.47632725.41416357 1.2295233-.01857728c.38583235-.22167603-1.32767913-.23488403-1.2295233.01857728zM15.76556584 5.62419307s.55549834.29973446 1.19557727-.28752023c.32788683-.30082736-1.3468826.06172412-1.19557727.28752023z" stroke-width=".26458499999999996"/><path d="M15.08570063 5.33867873s.66435004.0387851 1.01251948-.83672501c.1783528-.4484892-1.25798119.68392638-1.01251948.83672501z" stroke-width=".28358467246"/><path d="M16.01214057 6.36723301s.22376905.59020886 1.09206803.56520714c.44479527-.01280583-1.05865963-.83494984-1.09206803-.56520714zM15.23319208 6.61064086s.16180435.61011363 1.02806216.67465538c.44374963.03306233-.9670556-.93952376-1.02806216-.67465538z" stroke-width=".26458499999999996"/><path d="M13.8690075 4.96690177s.45757993.11043214.74162072-.38438666c.1455046-.25347471-.9038484.25815466-.74162072.38438666zM12.4269109 5.27760796s.3497019.31509229.83517596.01535995c.24868963-.15353947-.91767058-.2036332-.83517597-.01535995z" stroke-width=".18663790621999998"/><path d="M13.79442499 5.55872775s.46002574.22526907.88766754-.22749968c.21906547-.2319341-1.02880017.05603522-.88766754.22749968zM13.75815379 4.51346909s.34848623-.37540247.03845666-.91554968c-.1588142-.27669666-.24336516 1.00117096-.03845666.91554968z" stroke-width=".20288483634"/><path d="M13.29474315 4.89108912s.00353483-.51139865-.57530787-.77118985c-.29651713-.13308224.48424428.96141009.57530787.77118985z" stroke-width=".20030989511999997"/><path d="M7.87251601 5.6405468s-.05467067-.62883238-.89699145-.84111781c-.43148708-.10874516.79142306 1.09158261.89699145.8411178z" stroke-width=".26458499999999996"/><path d="M6.91207783 7.18630574s.57645934.04233474.81334996-.7506416c.12135167-.40620914-1.03641875.60900027-.81334996.7506416z" stroke-width=".25124497708"/><path d="M7.92571772 7.05572505s.4698432.0286632.6629213-.50822224c.09890759-.27502414-.84473343.41232383-.6629213.50822224z" stroke-width=".18663790621999998"/><path d="M8.86814766 5.39503957s.01086556-.53261259-.64029835-.72564412c-.33356444-.0988836.53475394.93574022.64029835.72564412z" stroke-width=".21713503165999998"/><path d="M11.64809364 5.17348949s.11696312-.73957673-1.02602592-1.1951818c-.58550809-.2333886.79666533 1.45792503 1.02602592 1.1951818z" stroke-width=".34846373669999997"/><path d="M10.97033487 5.35174739s-.15920896-.51302954-.79222704-.49645993c-.32427015.00848431.76610208.7301318.79222704.49645993z" stroke-width=".21033237492"/></g></svg>