<svg xmlns="http://www.w3.org/2000/svg" viewBox="0 0 10.66885 11.695794" height="11.695794mm" width="10.66885mm"><defs><clipPath id="a" clipPathUnits="userSpaceOnUse"><path fill="none" stroke="#000" stroke-width=".708062" d="M70.557999 720.54102H103.868v-35.13303H70.557999z"/></clipPath><clipPath id="b" clipPathUnits="userSpaceOnUse"><path d="M0 792h612V0H0z"/></clipPath><clipPath id="c" clipPathUnits="userSpaceOnUse"><path d="M0 792.03h612V.03H0z"/></clipPath></defs><g clip-path="url(#a)" transform="matrix(.35278 0 0 -.35278 -25.393329 253.80142)"><g clip-path="url(#b)"><g clip-path="url(#c)"><path d="M74.92573778 686.38663147c-.1055927.05987717-.2171812.14664514-.24795964.19281693-.08547346.12818978-.03162818 21.0528934.05452847 21.1923166.14176736.22938335 1.53994794-.1017803 3.67681875-.87089789.63898906-.22998062 2.2496275-.25218467 2.95479686-.04071914.38707553.11607943.54735325.2381666.87899094.66951552.41563552.54061958.70791412.69500101 1.12000212.59157648.36560057-.0917674 2.18743439-1.33417918 2.53015765-1.72547648.41896652-.47833931.40316092-.76810927-.07987738-1.4644629l-.3918655-.56490702.05536122-1.77585018c.0809766-2.59660274.20039296-9.37580459.20039296-11.37502863 0-1.91612571-.04336962-2.08378741-.77148292-2.9820806-.77776019-.95957323-3.1573986-1.6422018-3.49908626-1.00376984-.05342924.09984799-.09716527.34932742-.09716527.55439769 0 .52823449-.2518236 1.30990404-.5275438 1.6375818-.23670085.28130993-1.09707483.73527748-1.84520078.97361623-.6574428.20946295-.6990703.1240195-.6990703-1.43437147 0-1.17116313-.02141234-1.34640688-.190833-1.56177885-.25898525-.32923134-1.20764072-.80904975-1.94179645-.98213352-.7191196-.16953781-.92438914-.1748183-1.17916734-.03034473zm6.93463335 5.08798038c.14909556.12373843.173212 3.95854473.02732453 4.34224979l-.09363441.24621206-1.41828984-.00057583c-1.50853995-.00057618-2.08050263-.09450777-2.18173505-.35829687-.03440923-.08969455-.03410944-1.02837804.0007105-2.08594458.04819958-1.46463856.09586619-1.95716106.20002656-2.06683575.2494919-.26272457 3.16374382-.3273693 3.46559571-.076871zm-.26304907 5.76885687l.23999855.12163045v1.69297846c0 .93113693-.0316375 1.72453142-.0703174 1.7630934-.1175843.11727395-1.43632055.16568722-2.5132928.09229439-.99442009-.06777156-1.0187797-.0750441-1.08856081-.32403166-.12384658-.44192044-.06622028-3.15944394.07048396-3.32415447.09939704-.11973326.39352767-.14601275 1.62155745-.14485336 1.01814346.00095983 1.57726514.04050835 1.74013105.12303577zm-.01334598 4.85996335c.12764392.06829855.19033334.23806121.22274397.60305795.06085737.68550455-.04556808 2.82476698-.14546477 2.92414067-.04403582.04381085-.79687846.07486842-1.6729881.0690012-2.07743477-.01385926-1.97147233.09148634-1.92695351-1.9154617.03537522-1.59409311.07924449-1.72789012.59133577-1.8035139.4994668-.07374417 2.73939775.02005357 2.93132664.12278984zm9.59325568-13.96488653c-1.22934885.1600519-1.64230625.43704012-2.06910728 1.3878329-.31421323.70001449-.32956914.97782869-.50741789 9.19958097-.09779816 4.52067624-.09569963 5.42404966.0129073 5.55490744.10589248.12760306.24469525.14538036.7564601.09682655 2.42033125-.22952389 3.60083698-.70698136 3.28463581-1.32843143-.06122378-.12033052-.20912018-.34082523-.32866977-.49000698-.20399044-.25457372-.21828043-.36664799-.2325038-1.82384537-.01786049-1.83112142.06345555-3.84557738.16165343-4.00445267.12601173-.2038768.44742658-.00009591 1.185363.7514246 1.04063771 1.05980452 1.66923072 1.88593945 2.66434698 3.50164639.48107635.78109442.95547404 1.46340539 1.05421154 1.51624893.2298723.12303577.52288372-.02560282 1.71716714-.87105598 1.37905065-.97625472 1.93630697-1.50740596 1.90096173-1.81191772-.02691015-.23184267-.07378165-.25545204-.62943909-.316724-.6514803-.07184698-1.17332476-.31219183-2.29912615-1.05891213-.38039354-.25229007-.71176475-.45873158-.73638417-.45873158-.02461875 0-.42614815-.22077577-.89228163-.4906218-.4661368-.26985658-1.36171946-.74662193-1.9901859-1.05951291-.62846643-.3128945-1.3196256-.7051931-1.53590744-.87177972-.21628183-.1666007-.40891689-.3138431-.42808013-.32719363-.01916125-.01337549-.02918889-.61568826-.02228506-1.33846893.01367242-1.43129031.12281397-1.8496576.53101137-2.03564467.55869863-.25453858 1.42279667-.32796655 3.37904334-.2870366 2.63075718.05501827 2.77972283.11751988 3.53478126 1.4826934.35510791.64205206 1.01676776 2.4923842 1.2442051 3.47942827.07801203.33861186.20632215.68013272.2851003.75891848.12701103.1270058.1509276.1126364.21098554-.12661934.03724058-.14840179.01112954-.83550138-.05805933-1.52685207-.06918487-.69135069-.1295426-1.68896276-.13413937-2.2169169l-.00836114-.95991787.47179284-.88451895c.35144715-.65884564.48294504-1.01861458.51540563-1.41003134.07689347-.92720062-.38663117-1.55916565-1.43977045-1.96297346-.3560416-.1365177-.96624915-.15979753-4.53909108-.1731674-2.85424096-.01068077-4.4151349.02196902-5.05922673.10582552zm-.37070033 16.76274515c-1.2001493.10441527-1.75709584.47863794-2.11166746 1.4188181-.11242125.29813863-.24386251.80123617-.29206208 1.11800935-.11265442.74049121-.2860996 11.2188259-.19306476 11.66307777l.07035072.33590661.77452412-.0153461c.70833715-.01403493 2.21894232-.3220642 2.93580017-.5986347.23093823-.08909728.4542518-.42377424.4542518-.68080376 0-.04532157-.15172705-.2811694-.33720046-.52413517-.30851722-.4041876-.34226359-.51307882-.39675875-1.28078757-.03275705-.46147195-.02778287-1.43229863.0110536-2.15738754.06981776-1.30373644.07314876-1.31834474.2984909-1.31834474.31627846 0 1.87813439 1.83843611 3.12440472 3.67770733.52990548.78204653 1.0303749 1.44757446 1.11215095 1.47895526.21058582.0808059.67179941-.18806695 1.95440096-1.13940535 1.24039445-.92002436 1.6020378-1.26437695 1.69047584-1.60965704.08410775-.32842329-.2571532-.58375237-.7802068-.58375237-.22301045 0-.66566038-.08540832-.98364764-.18978846-.51942281-.17050045-2.36141918-1.07267724-3.62929438-1.77754008-.26398175-.14675054-.94519123-.52450407-1.51379293-.83943629-.5686017-.3149322-1.07617282-.6517312-1.12793323-.74844532-.05176374-.09672115-.09403413-.55665077-.09396751-1.02208221.0001922-1.04612724.16551739-1.43689403.71980911-1.70142795.34817944-.1661791.61012262-.18244567 2.80973181-.17478668 1.51815322.00527944 2.54838155.04890514 2.7535012.11660643.75765594.25004156 1.4323733 1.42566903 2.11864591 3.69153182.23893263.78884476.45205334 1.45191338.47362823 1.47348856.02157455.02157412.0912694.00706981.15485819-.03223242.08777185-.05424535.09533322-.38604843.03142765-1.37749467-.15012817-2.32886117-.08247556-2.79561361.50777764-3.50266875.5566001-.66674705.81271737-1.59224513.6103358-2.20546354-.15382558-.46604978-.75612368-.97988396-1.36666267-1.16590265-.28033696-.08540833-1.09285446-.19389903-1.80561185-.24108265-1.67107942-.11063382-7.03149717-.16944646-7.97377478-.08744604zm-17.59826492 3.01461166c-.1453615.1568337-.39299204.8139262-.72737248 1.93007351-.49249867 1.64393982-.57979086 2.08672805-.43918169 2.2277484.03728721.0373815 1.05680305.09011614 2.26558831.11713342 1.79314392.04008675 2.22470162.07606294 2.34395142.19530435.25705327.25703302.69464674 1.71620137 1.10698124 3.69121.68600945 3.28584895.67796176 3.25897572.98665219 3.2944214.14706365.01688528.53582466-.05392915.86394815-.15739584.3281368-.10343155.92056515-.28229365 1.3165411-.39747016 1.3850931-.40283147 2.20437586-.77239198 2.26719519-1.02268299.09276835-.36954997-.01633622-.49362216-.59416046-.67576217-.7382462-.232721-1.05391841-.58379452-2.73254921-3.0390853-.61477936-.89922212-.95110043-1.47699133-.91481252-1.57155883.05069782-.1321352.31124864-.14158599 2.23978439-.08108696 2.5335919.07950598 2.56071957.08850003 2.24328526.74420477-.11222139.23184267-.28007048.50544793-.37295874.6080398-.86892133.95959115-1.0596977 1.32651669-.75124376 1.44487625.21578218.08280848 1.22949541-.21283571 2.02623397-.5908949 1.68786434-.80094105 2.66899373-1.77776493 3.08077195-3.06724792.29925704-.93717277.26857853-1.5099812-.12404644-2.31444258-.3660136-.74996308-.83305645-1.11230024-1.50560867-1.16807388-.65005797-.05389402-1.1419201.16073347-1.34396523.58652084-.07957759.1676898-.1958628.69350785-.25838567 1.16848142-.14316638 1.08721176-.20125902 1.19956007-.62036544 1.19956007-.31704458 0-1.9098555-.38660002-3.21513116-.78036717-.34317961-.10353695-.77515368-.2288915-.9599409-.27860469-1.06331517-.28601775-2.51794954-.70583953-2.97582214-.85885078-.29039658-.09703734-.8287961-.26950524-1.19647521-.38327995-.49692191-.153742-.7853732-.31616186-1.12381945-.63272425-.25042124-.2342317-.50242239-.4258787-.56000205-.4258787-.05757967 0-.2038672.10701511-.32509228.23781527z"/></g></g></g></svg>